# xmcd
#
# Track frame offsets:
#	150
#	20319
#	41023
#	58685
#	72395
#	89146
#	103765
#	115866
#	134455
#	150364
#	164728
#	178395
#	193767
#	214656
#	225666
#	241993
#	260312
#	275642
#
# Disc length: 3853 seconds
#
# Revision: 3
# Processed by: cddbd v1.5.1PL0 Copyright (c) Steve Scherf et al.
# Submitted via: audiograbber 1.83.01
#
DISCID=0d0f0b12
DTITLE=1998-06 Country Radio - 1998-06 Country Radio
DYEAR=1998
DGENRE=Country
TTITLE0=Faith Hill - Tim McGraw - Just To Hear You Say That You Love Me
TTITLE1=Vince Gill - If You Ever Have Forever In Your Mind
TTITLE2=John Michael Montgomery - Cover You In Kisses
TTITLE3=Mindy McCready - The Other Side
TTITLE4=Toby Keith - Double Wide Paradise
TTITLE5=Jo Dee Messina - I'm Alright
TTITLE6=Neal McCoy - Love Happens Like That
TTITLE7=The Mavericks - Dance The Night Away
TTITLE8=Brady Seals - I Fell
TTITLE9=Shane Stockton - Gonna Have To Fall
TTITLE10=Hal Ketchum - When Love Looks Back At You
TTITLE11=Mark Neslar - Used To The Pain
TTITLE12=George Jones - Wild Irish Rose
TTITLE13=Chris Cummings - 'Til I See You Again
TTITLE14=Bellamy Bros. - Tough Love
TTITLE15=Olivia Newton John - I Honestly Love You
TTITLE16=Eddie Rabbitt - Love May Never Pass This Way Again
TTITLE17=Cledus T. Judd - Every Light In The House Is Blown
EXTD=
EXTT0=
EXTT1=
EXTT2=
EXTT3=
EXTT4=
EXTT5=
EXTT6=
EXTT7=
EXTT8=
EXTT9=
EXTT10=
EXTT11=
EXTT12=
EXTT13=
EXTT14=
EXTT15=
EXTT16=
EXTT17=
PLAYORDER=
